<?xml version="1.0" encoding="UTF-8"?><svg xmlns="http://www.w3.org/2000/svg" version="1.1" viewBox="0 0 3054.2 717.6" preserveAspectRatio="none"><g isolation="isolate"><g id="Layer_1"><g><polygon points="224.3 44.9 2825.4 44.9 2915.1 89.7 2959.9 134.6 3004.8 224.3 3004.8 493.4 2959.9 583.1 2915.1 627.9 2825.4 672.8 224.3 672.8 134.6 627.9 89.7 583.1 44.9 493.4 44.9 224.3 89.7 134.6 134.6 89.7 224.3 44.9" fill="#FD513E"/><g><rect x="2870.2" y="493.4" width="44.9" height="44.9" fill="#fff"/><rect x="2870.2" y="448.5" width="44.9" height="44.9" fill="#fff"/><rect x="2825.4" y="493.4" width="44.9" height="44.9" fill="#fff"/><rect x="2780.5" y="538.2" width="44.9" height="44.9" fill="#fff"/><rect x="2735.7" y="538.2" width="44.9" height="44.9" fill="#fff"/></g><g mix-blend-mode="screen" opacity=".2"><g><g><rect x="134.6" y="89.7" width="44.9" height="44.9" fill="#fff"/><rect x="89.7" y="134.6" width="44.9" height="44.9" fill="#fff"/><rect x="179.4" y="89.7" width="44.9" height="44.9" fill="#fff"/><rect x="224.3" y="44.9" width="44.9" height="44.9" fill="#fff"/><rect x="2915.1" y="134.6" width="44.9" height="44.9" fill="#fff"/><rect x="2870.2" y="89.7" width="44.9" height="44.9" fill="#fff"/><rect x="2825.4" y="89.7" width="44.9" height="44.9" fill="#fff"/><rect x="2780.5" y="44.9" width="44.9" height="44.9" fill="#fff"/><rect x="269.1" y="44.9" width="2511.4" height="44.9" fill="#fff"/></g><g><rect x="2870.2" y="538.2" width="44.9" height="44.9" fill="#fff"/><rect x="2825.4" y="538.2" width="44.9" height="44.9" fill="#fff"/><rect x="2780.5" y="583.1" width="44.9" height="44.9" fill="#fff"/><rect x="134.6" y="538.2" width="44.9" height="44.9" fill="#fff"/><rect x="179.4" y="538.2" width="44.9" height="44.9" fill="#fff"/><rect x="224.3" y="583.1" width="44.9" height="44.9" fill="#fff"/><rect x="269.1" y="583.1" width="2511.4" height="44.9" fill="#fff"/></g></g></g><g mix-blend-mode="multiply" opacity=".4"><g><g><rect x="134.6" y="135.1" width="44.9" height="44.9" fill="#782b91"/><rect x="89.7" y="179.9" width="44.9" height="44.9" fill="#782b91"/><rect x="89.7" y="224.8" width="44.9" height="44.9" fill="#782b91"/><rect x="44.9" y="224.8" width="44.9" height="44.9" fill="#782b91"/><rect x="44.9" y="269.6" width="44.9" height="44.9" fill="#782b91"/><rect x="179.4" y="135.1" width="44.9" height="44.9" fill="#782b91"/><rect x="224.3" y="90.2" width="44.9" height="44.9" fill="#782b91"/><rect x="2915.1" y="179.9" width="44.9" height="44.9" fill="#782b91"/><rect x="2959.9" y="269.6" width="44.9" height="44.9" fill="#782b91"/><rect x="2959.9" y="224.8" width="44.9" height="44.9" fill="#782b91"/><rect x="2870.2" y="135.1" width="44.9" height="44.9" fill="#782b91"/><rect x="2825.4" y="135.1" width="44.9" height="44.9" fill="#782b91"/><rect x="2780.5" y="90.2" width="44.9" height="44.9" fill="#782b91"/><rect x="269.1" y="90.2" width="2511.4" height="44.9" fill="#782b91"/></g><g><rect x="2870.2" y="583.1" width="44.9" height="44.9" fill="#782b91"/><rect x="2915.1" y="538.2" width="44.9" height="44.9" fill="#782b91"/><rect x="2959.9" y="493.4" width="44.9" height="44.9" fill="#782b91"/><rect x="2959.9" y="448.5" width="44.9" height="44.9" fill="#782b91"/><rect x="2825.4" y="583.1" width="44.9" height="44.9" fill="#782b91"/><rect x="2780.5" y="627.9" width="44.9" height="44.9" fill="#782b91"/><rect x="89.7" y="538.2" width="44.9" height="44.9" fill="#782b91"/><rect x="2915.1" y="493.4" width="44.9" height="44.9" fill="#782b91"/><rect x="89.7" y="493.4" width="44.9" height="44.9" fill="#782b91"/><rect x="89.7" y="448.5" width="44.9" height="44.9" fill="#782b91"/><rect x="2915.1" y="224.8" width="44.9" height="44.9" fill="#782b91"/><rect x="2915.1" y="448.5" width="44.9" height="44.9" fill="#782b91"/><rect x="44.9" y="448.5" width="44.9" height="44.9" fill="#782b91"/><rect x="2959.9" y="403.7" width="44.9" height="44.9" fill="#782b91"/><rect x="44.9" y="403.7" width="44.9" height="44.9" fill="#782b91"/><rect x="2959.9" y="358.8" width="44.9" height="44.9" fill="#782b91"/><rect x="44.9" y="358.8" width="44.9" height="44.9" fill="#782b91"/><rect x="2959.9" y="314" width="44.9" height="44.9" fill="#782b91"/><rect x="44.9" y="314" width="44.9" height="44.9" fill="#782b91"/><rect x="44.9" y="493.4" width="44.9" height="44.9" fill="#782b91"/><rect x="134.6" y="583.1" width="44.9" height="44.9" fill="#782b91"/><rect x="179.4" y="583.1" width="44.9" height="44.9" fill="#782b91"/><rect x="224.3" y="627.9" width="44.9" height="44.9" fill="#782b91"/><rect x="269.1" y="627.9" width="2511.4" height="44.9" fill="#782b91"/></g></g></g><rect x="134.6" y="44.9" width="44.9" height="44.9" fill="#0a0a0a"/><rect x="89.7" y="89.7" width="44.9" height="44.9" fill="#0a0a0a"/><rect x="89.7" y="583.1" width="44.9" height="44.9" fill="#0a0a0a"/><rect x="44.9" y="134.6" width="44.9" height="44.9" fill="#0a0a0a"/><rect x="44.9" y="179.4" width="44.9" height="44.9" fill="#0a0a0a"/><rect x="44.9" y="493.4" width="44.9" height="44.9" fill="#0a0a0a"/><rect x="44.9" y="538.2" width="44.9" height="44.9" fill="#0a0a0a"/><rect y="224.3" width="44.9" height="44.9" fill="#0a0a0a"/><rect y="269.1" width="44.9" height="44.9" fill="#0a0a0a"/><rect y="314" width="44.9" height="44.9" fill="#0a0a0a"/><rect y="358.8" width="44.9" height="44.9" fill="#0a0a0a"/><rect y="403.7" width="44.9" height="44.9" fill="#0a0a0a"/><rect y="448.5" width="44.9" height="44.9" fill="#0a0a0a"/><rect x="179.4" y="44.9" width="44.9" height="44.9" fill="#0a0a0a"/><rect x="134.6" y="627.9" width="44.9" height="44.9" fill="#0a0a0a"/><rect x="179.4" y="627.9" width="44.9" height="44.9" fill="#0a0a0a"/><rect x="224.3" y="0" width="44.9" height="44.9" fill="#0a0a0a"/><rect x="224.3" y="672.8" width="44.9" height="44.9" fill="#0a0a0a"/><rect x="2870.2" y="627.9" width="44.9" height="44.9" fill="#0a0a0a"/><rect x="2915.1" y="583.1" width="44.9" height="44.9" fill="#0a0a0a"/><rect x="2915.1" y="89.7" width="44.9" height="44.9" fill="#0a0a0a"/><rect x="2959.9" y="538.2" width="44.9" height="44.9" fill="#0a0a0a"/><rect x="2959.9" y="493.4" width="44.9" height="44.9" fill="#0a0a0a"/><rect x="2959.9" y="179.4" width="44.9" height="44.9" fill="#0a0a0a"/><rect x="2959.9" y="134.6" width="44.9" height="44.9" fill="#0a0a0a"/><rect x="3004.8" y="448.5" width="44.9" height="44.9" fill="#0a0a0a"/><rect x="3004.8" y="403.7" width="44.9" height="44.9" fill="#0a0a0a"/><rect x="3004.8" y="358.8" width="44.9" height="44.9" fill="#0a0a0a"/><rect x="3004.8" y="314" width="44.9" height="44.9" fill="#0a0a0a"/><rect x="3004.8" y="269.1" width="44.9" height="44.9" fill="#0a0a0a"/><rect x="3004.8" y="224.3" width="44.9" height="44.9" fill="#0a0a0a"/><rect x="2825.4" y="627.9" width="44.9" height="44.9" fill="#0a0a0a"/><rect x="2870.2" y="44.9" width="44.9" height="44.9" fill="#0a0a0a"/><rect x="2825.4" y="44.9" width="44.9" height="44.9" fill="#0a0a0a"/><rect x="2780.5" y="672.8" width="44.9" height="44.9" fill="#0a0a0a"/><rect x="2780.5" y="0" width="44.9" height="44.9" fill="#0a0a0a"/><rect x="269.1" y="0" width="2511.4" height="44.9" fill="#0a0a0a"/><rect x="269.1" y="672.8" width="2511.4" height="44.9" fill="#0a0a0a"/></g></g></g></svg>